<?xml version="1.0" standalone="no"?>
<!DOCTYPE svg PUBLIC "-//W3C//DTD SVG 20010904//EN"
 "http://www.w3.org/TR/2001/REC-SVG-20010904/DTD/svg10.dtd">
<svg version="1.0" xmlns="http://www.w3.org/2000/svg"
 width="500.000000pt" height="500.000000pt" viewBox="0 0 500.000000 500.000000"
 preserveAspectRatio="xMidYMid meet">

<g transform="translate(0.000000,500.000000) scale(0.100000,-0.100000)"
fill="#9E9E9E" stroke="none">
<path d="M2910 4679 c-28 -12 -67 -46 -81 -70 -5 -9 -36 -140 -69 -290 -34
-151 -119 -526 -190 -834 -71 -308 -172 -751 -224 -985 -52 -234 -138 -612
-191 -840 -173 -747 -265 -1164 -265 -1200 0 -82 78 -156 154 -145 52 8 90 29
115 63 13 19 38 108 70 253 28 123 111 487 185 809 74 322 162 709 196 860 34
151 134 588 222 969 248 1084 279 1223 279 1269 1 48 -23 95 -62 125 -31 23
-103 31 -139 16z"/>
<path d="M3378 3511 c-69 -22 -108 -74 -108 -144 0 -66 18 -96 97 -158 37 -29
163 -128 278 -219 116 -92 300 -238 410 -324 110 -87 200 -162 200 -166 0 -7
-293 -240 -770 -613 -213 -167 -212 -166 -225 -222 -28 -124 99 -225 210 -167
19 10 222 164 450 342 228 178 483 377 567 442 156 123 183 154 183 218 0 64
-27 95 -188 223 -87 67 -233 183 -327 257 -93 73 -265 209 -382 302 -117 92
-231 181 -255 197 -47 33 -99 44 -140 32z"/>
<path d="M1553 3335 c-17 -7 -96 -65 -175 -128 -79 -63 -294 -232 -478 -377
-554 -435 -556 -437 -571 -472 -18 -43 -16 -96 5 -135 10 -21 112 -107 284
-241 405 -316 821 -641 875 -684 27 -21 61 -41 75 -44 15 -3 36 -10 47 -15 39
-19 110 24 141 83 8 15 14 44 14 65 0 78 10 69 -520 484 -167 131 -518 407
-529 416 -3 2 4 10 16 18 19 14 435 342 806 638 110 88 194 162 204 181 39 74
9 165 -67 204 -51 25 -81 27 -127 7z"/>
</g>
</svg>
