<?xml version="1.0" standalone="no"?>
<!DOCTYPE svg PUBLIC "-//W3C//DTD SVG 20010904//EN"
 "http://www.w3.org/TR/2001/REC-SVG-20010904/DTD/svg10.dtd">
<svg version="1.0" xmlns="http://www.w3.org/2000/svg"
 width="500.000000pt" height="500.000000pt" viewBox="0 0 500.000000 500.000000"
 preserveAspectRatio="xMidYMid meet">

<g transform="translate(0.000000,500.000000) scale(0.100000,-0.100000)"
fill="#9E9E9E" stroke="none">
<path d="M3903 4408 c-48 -10 -52 -16 -89 -120 -14 -40 -30 -77 -34 -82 -5 -5
-50 9 -105 33 l-96 42 -42 -24 c-99 -59 -247 -223 -247 -273 0 -14 16 -60 36
-104 20 -43 34 -84 32 -91 -2 -6 -44 -26 -93 -43 -120 -43 -120 -43 -120 -253
0 -200 1 -202 128 -247 65 -23 87 -35 87 -49 0 -10 -16 -49 -35 -87 -19 -38
-35 -81 -35 -96 0 -35 53 -105 144 -192 83 -78 128 -106 160 -99 11 2 55 20
97 40 42 19 80 32 86 29 5 -4 22 -43 37 -87 16 -44 36 -88 45 -98 45 -48 359
-49 412 -1 10 9 30 51 44 94 14 43 32 83 38 89 9 7 37 -2 96 -30 46 -21 93
-39 105 -39 39 0 182 127 259 231 36 47 34 76 -9 160 -19 39 -34 78 -32 87 2
10 34 28 88 47 124 46 125 48 125 254 0 208 1 206 -120 247 -48 16 -90 35 -92
42 -3 7 11 50 31 95 20 45 36 92 36 104 0 48 -178 241 -258 279 -34 16 -36 15
-124 -26 -49 -23 -95 -39 -102 -37 -6 3 -22 36 -35 73 -40 115 -45 121 -101
133 -61 13 -258 13 -317 -1z m261 -124 c8 -3 27 -41 41 -84 30 -89 40 -100
114 -130 l54 -21 85 41 84 40 49 -41 c27 -22 62 -58 79 -79 l30 -38 -40 -84
-41 -85 21 -54 c30 -74 41 -84 131 -114 l78 -26 7 -56 c6 -53 1 -144 -11 -162
-3 -5 -41 -21 -84 -36 -44 -14 -84 -32 -89 -38 -5 -7 -19 -38 -32 -69 l-23
-57 41 -86 42 -87 -72 -74 c-39 -41 -77 -74 -83 -74 -7 0 -46 16 -88 35 -42
19 -82 35 -90 35 -8 0 -39 -11 -70 -24 -54 -25 -55 -26 -86 -106 -17 -45 -31
-85 -31 -90 0 -12 -130 -22 -180 -13 l-45 8 -31 85 c-31 83 -32 86 -85 112
-30 15 -62 28 -71 28 -9 0 -51 -16 -94 -35 -42 -19 -82 -35 -89 -35 -17 0
-145 135 -145 153 0 8 16 49 36 91 l36 76 -22 60 c-12 33 -27 64 -34 69 -6 5
-47 23 -91 39 -63 23 -81 33 -86 53 -9 32 -10 114 -3 161 6 36 8 38 85 63 86
29 105 46 133 120 l18 46 -36 81 c-20 44 -36 84 -36 90 0 17 56 82 104 121
l44 37 85 -41 84 -40 54 21 c74 30 84 41 114 131 15 43 32 80 38 83 17 7 183
7 201 0z"/>
<path d="M3990 3974 c-55 -10 -148 -48 -197 -81 -239 -158 -279 -510 -82 -718
102 -108 210 -155 354 -155 144 0 252 47 353 154 236 249 133 663 -194 776
-58 20 -184 33 -234 24z m193 -150 c93 -33 181 -122 213 -218 24 -72 16 -195
-18 -261 -35 -68 -101 -132 -168 -164 -46 -22 -69 -26 -145 -26 -78 0 -97 4
-146 28 -67 32 -142 109 -172 175 -33 73 -31 207 5 284 76 164 260 241 431
182z"/>
<path d="M492 3859 c-45 -13 -105 -76 -120 -125 -9 -32 -12 -341 -12 -1328 l0
-1286 -149 0 c-135 0 -151 -2 -175 -21 -26 -20 -26 -21 -26 -167 0 -134 2
-152 24 -197 29 -60 76 -107 136 -134 45 -20 55 -21 2186 -21 2351 0 2188 -4
2265 59 19 16 48 53 64 82 29 52 30 60 33 199 5 197 8 194 -157 198 l-121 4 0
678 c0 498 -3 686 -12 705 -21 46 -95 46 -116 0 -9 -19 -12 -207 -12 -705 l0
-680 -1900 0 -1900 0 0 1289 c0 1159 2 1291 16 1305 14 14 144 16 1278 16
1263 0 1263 0 1290 21 32 25 35 70 6 99 -20 20 -33 20 -1292 19 -770 0 -1286
-5 -1306 -10z m4088 -2966 c0 -102 -16 -140 -73 -166 -32 -16 -195 -17 -2150
-17 l-2114 0 -34 23 c-51 34 -69 78 -69 170 l0 77 2220 0 2220 0 0 -87z"/>
<path d="M687 3542 c-16 -17 -17 -109 -17 -1119 0 -1053 1 -1101 18 -1116 17
-16 150 -17 1714 -17 1629 0 1696 1 1711 18 15 17 17 72 17 589 0 554 -1 570
-20 588 -25 22 -65 22 -90 0 -19 -17 -20 -36 -22 -539 l-3 -521 -1597 -3
-1598 -2 0 1005 0 1005 1098 0 c1217 0 1142 -4 1142 64 0 71 92 66 -1187 66
-1101 0 -1151 -1 -1166 -18z"/>
<path d="M1672 3263 c-11 -10 -75 -115 -142 -233 -68 -118 -154 -268 -191
-332 -73 -123 -83 -162 -51 -191 22 -20 62 -22 84 -4 27 20 408 686 408 713 0
53 -67 82 -108 47z"/>
<path d="M1062 3029 c-101 -105 -118 -133 -106 -165 5 -13 51 -66 101 -118 77
-80 98 -96 123 -96 34 0 70 30 70 59 0 19 -74 115 -119 155 l-22 20 54 55 c64
66 87 99 87 123 0 28 -37 58 -70 58 -25 0 -45 -16 -118 -91z"/>
<path d="M1820 3100 c-36 -36 -20 -77 59 -155 28 -27 51 -53 51 -58 0 -5 -27
-38 -60 -73 -68 -73 -80 -103 -56 -139 12 -18 25 -25 49 -25 29 0 47 14 135
104 56 57 102 111 102 120 0 31 -21 60 -113 154 -99 99 -127 112 -167 72z"/>
<path d="M2626 2609 l-26 -20 0 -488 c0 -483 0 -488 21 -507 20 -18 47 -19
623 -22 599 -2 603 -2 629 19 55 42 25 119 -45 119 l-28 0 0 103 c0 125 -5
144 -41 162 -33 18 -72 7 -88 -24 -6 -11 -11 -69 -11 -130 0 -104 -1 -111 -20
-111 -19 0 -20 7 -20 220 0 146 -4 228 -12 245 -14 32 -53 43 -87 24 l-26 -15
-5 -234 c-5 -227 -6 -235 -25 -235 -19 0 -20 8 -23 125 -2 113 -4 127 -23 143
-28 23 -64 22 -89 -3 -18 -18 -20 -33 -20 -145 0 -118 -1 -125 -20 -125 -20 0
-20 7 -20 295 l0 296 -26 25 c-19 20 -31 24 -52 19 -57 -14 -57 -10 -60 -335
-3 -289 -4 -300 -23 -300 -18 0 -19 8 -19 193 0 219 -5 237 -65 237 -60 0 -65
-18 -65 -237 0 -186 -1 -193 -20 -193 -19 0 -20 7 -20 93 0 114 -12 137 -70
137 -58 0 -70 -23 -70 -137 0 -93 0 -93 -25 -93 l-25 0 0 435 0 436 -25 24
c-29 30 -45 31 -79 4z"/>
<path d="M984 2202 c-15 -10 -34 -47 -34 -66 0 -48 90 -75 123 -38 22 25 21
75 -1 95 -19 17 -68 22 -88 9z"/>
<path d="M1241 2184 c-12 -15 -21 -31 -21 -36 0 -14 21 -52 34 -60 6 -4 215
-8 464 -8 439 0 453 1 472 20 26 26 25 51 -1 84 l-20 26 -454 0 -454 0 -20
-26z"/>
<path d="M971 1934 c-12 -15 -21 -35 -21 -45 0 -30 36 -59 73 -59 42 0 67 26
67 68 0 60 -81 85 -119 36z"/>
<path d="M1245 1935 c-14 -13 -25 -29 -25 -35 0 -16 21 -53 34 -62 6 -4 215
-8 464 -8 439 0 453 1 472 20 27 27 25 56 -5 85 l-24 25 -446 0 -446 0 -24
-25z"/>
<path d="M971 1684 c-25 -32 -26 -52 -6 -81 19 -27 59 -37 88 -22 30 16 37 28
37 66 0 61 -80 86 -119 37z"/>
<path d="M1240 1683 c-15 -19 -19 -35 -15 -53 14 -57 -4 -55 491 -55 l456 0
19 24 c24 30 24 52 -2 85 l-20 26 -454 0 -454 0 -21 -27z"/>
</g>
</svg>
