<?xml version="1.0" standalone="no"?>
<!DOCTYPE svg PUBLIC "-//W3C//DTD SVG 20010904//EN"
 "http://www.w3.org/TR/2001/REC-SVG-20010904/DTD/svg10.dtd">
<svg version="1.0" xmlns="http://www.w3.org/2000/svg"
 width="500.000000pt" height="500.000000pt" viewBox="0 0 500.000000 500.000000"
 preserveAspectRatio="xMidYMid meet">

<g transform="translate(0.000000,500.000000) scale(0.100000,-0.100000)"
fill="#000000" stroke="none">
<path d="M2155 4973 c-418 -56 -865 -248 -1206 -519 -41 -32 -123 -106 -183
-164 -391 -379 -629 -833 -732 -1395 -22 -120 -31 -534 -14 -677 43 -375 193
-789 396 -1089 99 -147 170 -235 294 -363 404 -417 915 -671 1500 -747 52 -6
205 -12 340 -13 274 -1 296 3 362 62 59 53 82 105 82 182 0 75 -22 126 -76
176 -65 62 -88 68 -264 72 l-160 4 -67 117 c-116 205 -205 430 -287 728 -22
81 -40 147 -40 149 0 1 102 4 228 6 205 3 231 5 272 24 90 43 142 125 142 225
0 72 -27 133 -80 181 -67 61 -110 68 -393 68 l-246 0 -6 29 c-4 16 -11 128
-18 249 -11 208 -2 563 18 685 l6 37 477 0 477 0 7 -57 c3 -32 9 -148 12 -258
4 -127 11 -219 20 -253 48 -173 273 -234 402 -109 76 73 84 116 72 402 -6 127
-13 240 -15 253 l-5 22 484 0 484 0 10 -42 c40 -160 47 -233 47 -508 0 -304 0
-304 67 -366 53 -51 96 -68 168 -69 82 0 150 32 197 93 42 55 50 88 63 254 19
231 -8 505 -72 753 -255 990 -1085 1728 -2091 1860 -152 19 -519 19 -672 -2z
m443 -651 c78 -151 140 -297 191 -452 36 -111 101 -342 101 -362 0 -5 -175 -8
-390 -8 -374 0 -390 1 -390 19 0 24 70 270 113 396 63 185 143 361 230 509
l41 69 21 -27 c12 -15 49 -80 83 -144z m-718 73 c0 -3 -23 -59 -50 -125 -28
-66 -73 -187 -101 -270 -49 -145 -129 -446 -129 -482 0 -17 -22 -18 -415 -18
l-416 0 12 23 c6 12 37 58 67 102 156 225 347 412 572 558 164 106 460 243
460 212z m1389 -46 c353 -149 658 -399 883 -724 30 -44 61 -90 67 -102 l12
-23 -414 0 -414 0 -33 138 c-57 242 -133 466 -245 726 l-16 39 32 -7 c17 -3
75 -24 128 -47z m-1756 -1496 c-4 -82 -8 -240 -8 -353 0 -113 4 -271 8 -352
l8 -148 -480 0 -479 0 -17 73 c-59 259 -59 596 1 860 l16 67 479 0 480 0 -8
-147z m115 -1501 c40 -174 128 -448 201 -621 29 -68 50 -126 47 -128 -8 -8
-143 46 -260 104 -193 96 -345 204 -505 358 -128 124 -274 306 -330 413 l-12
22 413 0 413 0 33 -148z"/>
<path d="M3235 1830 c-11 -4 -31 -20 -45 -35 -50 -53 -41 -82 134 -465 87
-190 232 -509 323 -710 183 -408 191 -420 272 -420 34 0 56 6 75 21 16 12 70
109 142 252 64 128 124 240 133 251 9 10 123 72 253 137 146 74 245 129 257
145 15 19 21 41 21 75 0 80 -16 90 -365 247 -170 77 -493 224 -718 326 -227
103 -420 186 -435 185 -15 0 -36 -4 -47 -9z"/>
</g>
</svg>
