<?xml version="1.0" standalone="no"?>
<!DOCTYPE svg PUBLIC "-//W3C//DTD SVG 20010904//EN"
 "http://www.w3.org/TR/2001/REC-SVG-20010904/DTD/svg10.dtd">
<svg version="1.0" xmlns="http://www.w3.org/2000/svg"
 width="500.000000pt" height="500.000000pt" viewBox="0 0 500.000000 500.000000"
 preserveAspectRatio="xMidYMid meet">

<g transform="translate(0.000000,500.000000) scale(0.100000,-0.100000)"
fill="#9E9E9E" stroke="none">
<path d="M2988 4896 c6 -158 -23 -296 -93 -441 -47 -98 -174 -223 -372 -367
-86 -62 -168 -119 -182 -127 -38 -20 -221 -181 -274 -241 -62 -69 -149 -186
-174 -235 -42 -81 -67 -185 -66 -275 1 -89 33 -233 71 -320 21 -49 87 -159
106 -175 6 -5 38 -44 71 -85 69 -87 296 -320 312 -320 6 0 -13 54 -43 121 -30
66 -54 127 -54 135 0 8 -16 56 -36 107 -45 118 -88 283 -109 422 -16 110 -14
173 8 224 26 60 137 203 175 225 55 32 451 375 550 476 86 88 172 219 208 316
28 75 29 86 29 239 l-1 160 -37 92 c-36 92 -77 173 -87 173 -3 0 -4 -47 -2
-104z"/>
<path d="M3319 3906 c-142 -64 -363 -188 -482 -269 -164 -112 -286 -243 -331
-357 -23 -57 -23 -186 -2 -291 15 -70 108 -279 125 -279 7 0 61 -71 86 -111 6
-9 24 -39 40 -65 27 -45 30 -56 28 -129 -1 -64 -8 -98 -37 -175 -19 -52 -33
-96 -31 -98 8 -8 82 57 162 141 208 221 214 408 23 692 -62 92 -98 164 -106
212 -13 85 49 223 147 323 115 117 275 264 387 353 67 54 122 100 122 103 0 8
-16 2 -131 -50z"/>
<path d="M3835 2305 c-27 -8 -60 -14 -72 -15 -12 0 -48 -12 -80 -26 l-58 -27
92 -13 c239 -34 373 -135 373 -282 0 -135 -182 -355 -444 -537 -83 -57 -107
-83 -67 -70 11 3 50 14 88 25 38 10 105 33 149 50 43 18 101 40 128 51 143 55
313 195 366 303 57 116 49 254 -23 389 -43 82 -99 128 -180 150 -78 20 -202
21 -272 2z"/>
<path d="M1590 2249 c-296 -27 -486 -87 -528 -166 -29 -54 -2 -127 62 -171
106 -72 427 -132 781 -146 177 -8 573 8 730 29 140 18 422 77 515 107 120 39
361 160 346 175 -2 2 -62 -7 -132 -21 -294 -58 -672 -87 -1144 -87 -437 -1
-698 19 -772 57 -85 44 30 121 282 190 74 20 137 38 139 40 7 7 -188 2 -279
-7z"/>
<path d="M1583 1641 c-78 -27 -95 -35 -135 -71 -22 -20 -39 -66 -31 -86 21
-56 116 -108 268 -147 295 -77 668 -79 1125 -6 179 28 523 99 534 109 6 6 2
12 -10 16 -10 4 -58 34 -106 67 l-87 60 -133 -27 c-343 -68 -578 -90 -887 -83
-242 6 -393 24 -467 56 -38 17 -44 24 -44 50 0 28 13 44 66 78 33 21 -5 14
-93 -16z"/>
<path d="M1707 1119 c-88 -21 -157 -76 -157 -126 0 -62 62 -130 154 -168 157
-66 538 -113 811 -101 153 7 327 32 470 67 93 22 285 90 285 100 0 4 -33 26
-72 50 -40 23 -75 46 -78 50 -3 4 -27 19 -54 33 -57 30 -68 30 -321 -12 -140
-24 -187 -27 -380 -27 -209 1 -372 16 -485 45 -19 5 -47 12 -62 15 -33 6 -38
38 -11 67 15 17 14 18 -23 17 -21 -1 -56 -5 -77 -10z"/>
<path d="M1340 774 c-19 -2 -90 -9 -158 -14 -285 -25 -510 -96 -528 -166 -20
-79 22 -141 131 -195 180 -88 451 -128 1010 -150 742 -29 1411 25 1870 151
164 45 258 82 337 133 95 60 114 116 62 184 -31 41 -46 43 -32 3 8 -24 7 -35
-7 -56 -9 -14 -24 -27 -33 -30 -9 -3 -32 -12 -50 -20 -45 -19 -239 -68 -397
-99 -544 -106 -1333 -136 -1945 -74 -346 34 -613 97 -646 150 -20 33 105 93
289 139 81 20 150 40 154 44 3 3 0 5 -8 4 -8 0 -30 -3 -49 -4z"/>
<path d="M4245 433 c-111 -83 -430 -222 -514 -223 -13 0 -49 -7 -80 -15 -216
-55 -534 -77 -1161 -79 -267 0 -627 2 -800 6 -292 7 -311 6 -255 -8 85 -21
271 -50 475 -73 653 -76 1446 -45 1914 73 83 21 129 40 273 108 59 27 155 123
187 186 15 30 26 57 24 62 -2 5 -30 -12 -63 -37z"/>
</g>
</svg>
